<?xml version="1.0" encoding="UTF-8" ?>
<!DOCTYPE svg PUBLIC "-//W3C//DTD SVG 1.1//EN" "http://www.w3.org/Graphics/SVG/1.1/DTD/svg11.dtd">
<svg width="1191pt" height="1191pt" viewBox="0 0 1191 1191" version="1.1" xmlns="http://www.w3.org/2000/svg">
<g id="#000000ff">
<path fill="#000000" stroke="#000000" stroke-width="0.09375" opacity="1.00" d=" M 0.00 0.00 L 1191.00 0.00 L 1191.00 1191.00 L 0.00 1191.00 L 0.00 0.00 M 480.39 339.60 C 469.89 342.01 461.85 352.16 462.03 362.96 C 462.02 459.64 462.04 556.32 462.01 653.00 C 460.96 666.03 472.08 678.46 485.20 678.56 C 558.45 678.61 631.70 678.58 704.95 678.58 C 717.63 678.72 728.87 667.32 728.66 654.66 C 728.71 557.49 728.70 460.32 728.67 363.15 C 729.01 350.40 717.78 338.84 705.02 338.93 C 633.02 338.81 561.01 338.93 489.01 338.87 C 486.13 338.86 483.20 338.88 480.39 339.60 M 262.64 775.29 C 253.61 798.80 244.66 822.33 235.52 845.79 C 226.63 822.49 217.83 799.15 208.93 775.86 C 208.07 775.72 206.33 775.46 205.46 775.33 C 214.85 800.62 224.72 825.74 234.23 850.99 C 234.91 851.03 236.29 851.11 236.97 851.16 C 246.61 825.90 256.40 800.70 265.96 775.41 C 264.85 775.36 263.74 775.32 262.64 775.29 M 280.21 775.37 C 280.18 800.58 280.19 825.80 280.21 851.01 C 280.93 851.04 282.37 851.11 283.10 851.14 C 283.10 825.86 283.19 800.58 283.05 775.30 C 282.34 775.32 280.92 775.36 280.21 775.37 M 303.36 775.34 C 303.30 800.54 303.38 825.74 303.32 850.94 C 304.05 851.00 305.50 851.12 306.23 851.18 C 306.30 840.25 306.24 829.32 306.26 818.40 C 311.36 818.46 316.47 818.30 321.57 818.46 C 329.30 829.15 336.71 840.09 344.36 850.85 C 345.57 850.97 346.78 851.07 348.00 851.15 C 340.60 840.08 332.71 829.34 325.05 818.45 C 332.68 818.01 341.25 815.19 344.78 807.80 C 349.50 797.70 347.32 782.78 336.26 777.82 C 325.85 773.56 314.29 775.91 303.36 775.34 M 356.37 775.32 C 356.34 775.98 356.29 777.30 356.26 777.96 C 363.55 778.05 370.85 777.97 378.14 778.00 C 378.15 802.34 378.12 826.69 378.16 851.03 C 378.87 851.05 380.31 851.09 381.03 851.12 C 381.04 826.75 381.03 802.38 381.03 778.01 C 388.32 777.97 395.61 778.05 402.90 777.96 C 402.86 777.30 402.79 775.97 402.75 775.31 C 387.29 775.32 371.83 775.30 356.37 775.32 M 553.03 775.30 C 552.89 800.56 553.00 825.83 552.97 851.09 C 563.54 851.09 574.12 851.22 584.69 851.03 C 584.66 850.38 584.61 849.08 584.58 848.43 C 575.01 848.42 565.44 848.44 555.88 848.42 C 555.82 824.07 555.89 799.72 555.84 775.37 C 555.14 775.35 553.73 775.32 553.03 775.30 M 635.66 778.67 C 626.61 785.51 626.64 801.39 636.24 807.75 C 644.89 813.44 655.98 813.59 664.65 819.25 C 673.93 825.35 673.33 841.18 663.78 846.72 C 651.75 853.44 634.03 846.52 632.04 832.22 C 631.33 832.29 629.90 832.43 629.19 832.51 C 631.06 849.01 652.26 856.90 665.72 848.74 C 676.46 842.24 677.18 824.39 666.89 817.13 C 658.30 811.25 647.16 811.16 638.38 805.65 C 629.77 800.25 629.67 785.65 638.31 780.25 C 648.42 774.02 664.46 777.42 668.75 789.25 C 669.15 791.22 670.42 792.03 672.46 791.59 C 669.61 775.42 648.08 769.68 635.66 778.67 M 684.88 775.31 C 684.85 775.98 684.78 777.32 684.75 777.98 C 692.03 778.02 699.32 777.97 706.61 778.01 C 706.61 802.41 706.54 826.81 706.65 851.20 C 707.37 851.13 708.82 850.98 709.55 850.91 C 709.48 826.61 709.53 802.30 709.52 778.00 C 716.81 777.99 724.09 778.02 731.37 777.98 C 731.35 777.31 731.29 775.97 731.27 775.30 C 715.80 775.32 700.34 775.31 684.88 775.31 M 744.11 775.36 C 744.09 791.58 744.03 807.80 744.14 824.03 C 744.23 832.75 746.84 842.41 754.47 847.53 C 763.09 853.22 775.20 853.40 784.06 848.11 C 791.88 843.28 794.60 833.59 794.80 824.90 C 794.92 808.39 794.84 791.88 794.84 775.37 C 794.14 775.35 792.73 775.32 792.03 775.30 C 791.86 791.54 792.06 807.78 791.93 824.02 C 791.76 831.74 789.96 840.53 783.21 845.23 C 774.16 851.37 760.22 850.55 752.70 842.29 C 748.15 837.02 747.14 829.73 747.01 823.01 C 746.96 807.11 747.04 791.22 746.97 775.32 C 746.26 775.33 744.82 775.35 744.11 775.36 M 814.57 775.32 C 814.47 800.58 814.51 825.84 814.54 851.10 C 830.09 850.63 847.46 853.62 861.01 844.06 C 873.31 835.48 876.20 818.92 874.07 804.97 C 872.72 794.38 866.33 784.29 856.52 779.70 C 843.47 773.33 828.55 775.81 814.57 775.32 M 892.21 775.37 C 892.19 800.59 892.19 825.80 892.21 851.01 C 892.93 851.04 894.37 851.11 895.10 851.14 C 895.10 825.86 895.19 800.58 895.05 775.30 C 894.34 775.32 892.92 775.36 892.21 775.37 M 939.41 775.78 C 911.23 782.22 904.18 822.37 923.32 841.68 C 937.07 856.06 963.20 855.35 975.96 839.99 C 988.86 824.38 988.23 798.65 973.71 784.28 C 964.85 775.54 951.28 772.88 939.41 775.78 M 415.70 775.59 C 415.53 791.71 415.63 807.84 415.65 823.97 C 415.68 833.27 418.83 843.70 427.48 848.47 C 436.87 853.58 449.81 853.25 458.13 846.17 C 464.67 840.47 466.31 831.25 466.38 822.99 C 466.33 807.19 466.49 791.39 466.30 775.59 C 465.63 775.45 464.29 775.18 463.62 775.05 C 463.25 791.68 463.66 808.33 463.41 824.97 C 463.15 832.30 461.27 840.47 455.01 845.03 C 445.68 851.59 430.82 850.60 423.51 841.42 C 418.73 835.04 418.44 826.65 418.54 819.00 C 418.46 804.35 418.73 789.69 418.41 775.05 C 417.73 775.18 416.38 775.45 415.70 775.59 M 480.12 850.99 C 481.22 850.97 482.31 850.95 483.42 850.95 C 485.95 844.08 488.62 837.26 491.20 830.42 C 503.37 830.44 515.54 830.43 527.71 830.42 C 530.25 837.25 532.92 844.03 535.35 850.91 C 536.19 850.96 537.87 851.07 538.70 851.12 C 530.13 827.93 521.11 804.90 512.42 781.75 C 511.62 779.80 511.22 777.19 508.60 777.12 C 498.60 801.52 489.59 826.36 480.12 850.99 Z" />
<path fill="#000000" stroke="#000000" stroke-width="0.09375" opacity="1.00" d=" M 482.26 341.13 C 556.14 340.38 630.10 341.03 704.01 340.81 C 715.73 340.22 726.61 350.39 726.71 362.15 C 726.73 459.76 726.71 557.37 726.72 654.99 C 726.84 666.56 716.40 676.84 704.86 676.71 C 631.62 676.71 558.39 676.75 485.15 676.69 C 473.42 676.51 463.39 665.67 463.87 653.99 C 463.86 556.99 463.83 459.99 463.88 362.99 C 463.72 352.52 471.93 342.77 482.26 341.13 M 539.89 378.87 C 539.86 382.68 545.39 381.71 545.58 385.19 C 560.26 446.38 575.35 507.48 589.83 568.71 C 594.37 568.56 598.91 568.57 603.45 568.69 C 607.54 549.47 612.16 530.36 616.45 511.18 C 616.58 507.79 621.69 508.32 621.78 504.80 C 622.37 500.21 616.33 498.10 613.44 501.43 C 612.17 504.22 613.48 506.74 615.19 508.97 C 610.78 528.26 606.41 547.57 601.95 566.86 C 598.39 566.86 594.83 566.86 591.28 566.84 C 576.45 505.54 561.59 444.26 546.79 382.95 C 547.72 380.72 549.90 378.25 548.10 375.85 C 545.85 371.73 538.94 374.27 539.89 378.87 M 633.08 375.41 C 621.10 430.68 609.01 485.92 596.67 541.11 C 587.16 500.73 577.60 460.36 568.24 419.95 C 570.09 417.94 571.95 414.92 569.57 412.52 C 566.94 409.19 561.16 411.88 561.75 415.97 C 561.93 418.56 564.59 419.47 566.50 420.58 C 576.74 463.37 586.62 506.25 596.77 549.07 C 609.44 491.83 621.93 434.55 634.51 377.29 C 638.08 377.28 641.65 377.27 645.23 377.29 C 638.90 405.31 632.52 433.31 626.04 461.29 C 621.35 461.83 619.09 468.42 624.02 470.45 C 629.54 472.39 632.03 464.79 627.79 461.77 C 634.32 432.97 640.76 404.14 647.58 375.41 C 642.75 375.50 637.91 375.50 633.08 375.41 M 539.40 569.45 C 527.54 571.08 514.68 574.10 506.45 583.49 C 497.08 594.19 495.41 609.48 497.15 623.10 C 498.74 636.08 506.54 648.78 518.92 653.90 C 535.77 660.96 555.88 656.35 569.20 644.23 C 581.87 632.23 593.87 619.54 606.27 607.26 C 615.36 598.29 624.66 588.90 636.46 583.56 C 639.33 581.54 640.94 586.63 643.94 585.50 C 648.13 584.81 648.89 578.40 644.81 576.96 C 641.62 575.32 639.22 578.44 638.09 581.00 C 627.65 585.02 619.18 592.60 611.11 600.13 C 597.66 613.34 584.56 626.91 571.15 640.17 C 558.36 653.40 538.02 659.47 520.52 652.70 C 508.18 648.15 500.43 635.65 498.90 622.97 C 497.27 609.84 498.68 595.11 507.62 584.70 C 515.53 575.69 527.87 572.77 539.28 571.25 C 541.27 572.95 543.84 575.68 546.62 573.71 C 550.22 571.83 549.03 565.73 544.96 565.42 C 542.11 564.73 540.66 567.47 539.40 569.45 M 599.84 593.75 C 597.51 593.31 594.47 592.79 593.09 595.31 C 590.58 598.74 594.92 603.91 598.69 601.82 C 601.46 600.75 601.53 597.56 601.13 595.09 C 608.16 587.69 616.26 581.27 624.99 576.00 C 639.22 567.37 657.84 566.04 672.95 573.12 C 686.22 579.52 692.43 594.93 692.30 609.01 C 692.91 622.10 688.74 636.30 677.96 644.51 C 675.74 643.43 673.33 642.95 671.14 644.39 C 669.94 646.27 669.81 648.43 670.42 650.55 C 673.98 654.44 679.97 651.18 678.96 646.09 C 696.19 631.97 698.12 605.27 688.60 586.23 C 680.67 570.51 661.31 564.90 644.89 567.25 C 626.93 569.50 612.49 581.73 599.84 593.75 M 660.57 579.58 C 660.77 580.07 661.18 581.06 661.38 581.55 C 672.09 583.09 680.45 592.29 681.25 603.04 C 682.52 613.26 681.71 625.28 673.69 632.73 C 666.17 639.13 656.25 641.49 646.84 643.60 C 644.28 639.94 637.71 639.63 637.28 644.98 C 637.08 650.88 645.72 650.99 646.63 645.45 C 657.54 642.86 669.72 640.29 677.32 631.32 C 684.69 621.49 684.83 607.80 681.42 596.43 C 678.62 587.24 669.90 580.86 660.57 579.58 M 506.97 616.01 C 507.20 626.16 511.50 637.23 520.92 642.16 C 532.25 647.76 546.49 645.91 556.64 638.58 C 565.81 631.89 572.95 622.92 581.14 615.15 C 582.80 613.26 585.59 611.92 585.80 609.14 C 573.54 617.84 565.24 632.21 551.66 639.64 C 540.98 645.21 526.15 645.62 516.86 637.14 C 507.50 627.30 506.89 611.72 511.20 599.46 C 512.28 595.31 516.48 593.09 517.87 589.23 C 508.55 593.81 506.72 606.52 506.97 616.01 Z" />
<path fill="#000000" stroke="#000000" stroke-width="0.09375" opacity="1.00" d=" M 306.25 778.24 C 315.08 778.62 324.13 777.22 332.77 779.52 C 347.96 783.53 348.26 809.61 333.10 813.92 C 324.40 816.49 315.18 814.95 306.25 815.36 C 306.26 802.99 306.26 790.61 306.25 778.24 Z" />
<path fill="#000000" stroke="#000000" stroke-width="0.09375" opacity="1.00" d=" M 817.41 778.01 C 831.46 778.35 847.19 775.91 859.33 784.69 C 871.68 793.72 873.71 811.09 870.34 825.03 C 868.18 833.90 861.82 841.73 853.28 845.15 C 841.93 849.89 829.37 848.06 817.42 848.42 C 817.43 824.95 817.44 801.48 817.41 778.01 Z" />
<path fill="#000000" stroke="#000000" stroke-width="0.09375" opacity="1.00" d=" M 939.38 778.65 C 950.71 775.47 963.91 778.18 972.20 786.80 C 985.70 801.12 985.51 826.58 971.54 840.52 C 959.37 852.32 937.81 852.20 925.84 840.17 C 908.15 822.58 913.63 785.43 939.38 778.65 Z" />
<path fill="#000000" stroke="#000000" stroke-width="0.09375" opacity="1.00" d=" M 509.47 782.59 C 515.26 797.61 520.95 812.68 526.66 827.74 C 515.19 827.73 503.72 827.76 492.25 827.72 C 498.00 812.68 503.65 797.60 509.47 782.59 Z" />
</g>
<g id="#feeb5eff">
<path fill="#feeb5e" stroke="#feeb5e" stroke-width="0.09375" opacity="1.00" d=" M 480.39 339.60 C 483.20 338.88 486.13 338.86 489.01 338.87 C 561.01 338.93 633.02 338.81 705.02 338.93 C 717.78 338.84 729.01 350.40 728.67 363.15 C 728.70 460.32 728.71 557.49 728.66 654.66 C 728.87 667.32 717.63 678.72 704.95 678.58 C 631.70 678.58 558.45 678.61 485.20 678.56 C 472.08 678.46 460.96 666.03 462.01 653.00 C 462.04 556.32 462.02 459.64 462.03 362.96 C 461.85 352.16 469.89 342.01 480.39 339.60 M 482.26 341.13 C 471.93 342.77 463.72 352.52 463.88 362.99 C 463.83 459.99 463.86 556.99 463.87 653.99 C 463.39 665.67 473.42 676.51 485.15 676.69 C 558.39 676.75 631.62 676.71 704.86 676.71 C 716.40 676.84 726.84 666.56 726.72 654.99 C 726.71 557.37 726.73 459.76 726.71 362.15 C 726.61 350.39 715.73 340.22 704.01 340.81 C 630.10 341.03 556.14 340.38 482.26 341.13 Z" />
<path fill="#feeb5e" stroke="#feeb5e" stroke-width="0.09375" opacity="1.00" d=" M 539.89 378.87 C 538.94 374.27 545.85 371.73 548.10 375.85 C 549.90 378.25 547.72 380.72 546.79 382.95 C 561.59 444.26 576.45 505.54 591.28 566.84 C 594.83 566.86 598.39 566.86 601.95 566.86 C 606.41 547.57 610.78 528.26 615.19 508.97 C 613.48 506.74 612.17 504.22 613.44 501.43 C 616.33 498.10 622.37 500.21 621.78 504.80 C 621.69 508.32 616.58 507.79 616.45 511.18 C 612.16 530.36 607.54 549.47 603.45 568.69 C 598.91 568.57 594.37 568.56 589.83 568.71 C 575.35 507.48 560.26 446.38 545.58 385.19 C 545.39 381.71 539.86 382.68 539.89 378.87 Z" />
<path fill="#feeb5e" stroke="#feeb5e" stroke-width="0.09375" opacity="1.00" d=" M 633.08 375.41 C 637.91 375.50 642.75 375.50 647.58 375.41 C 640.76 404.14 634.32 432.97 627.79 461.77 C 632.03 464.79 629.54 472.39 624.02 470.45 C 619.09 468.42 621.35 461.83 626.04 461.29 C 632.52 433.31 638.90 405.31 645.23 377.29 C 641.65 377.27 638.08 377.28 634.51 377.29 C 621.93 434.55 609.44 491.83 596.77 549.07 C 586.62 506.25 576.74 463.37 566.50 420.58 C 564.59 419.47 561.93 418.56 561.75 415.97 C 561.16 411.88 566.94 409.19 569.57 412.52 C 571.95 414.92 570.09 417.94 568.24 419.95 C 577.60 460.36 587.16 500.73 596.67 541.11 C 609.01 485.92 621.10 430.68 633.08 375.41 Z" />
<path fill="#feeb5e" stroke="#feeb5e" stroke-width="0.09375" opacity="1.00" d=" M 539.40 569.45 C 540.66 567.47 542.11 564.73 544.96 565.42 C 549.03 565.73 550.22 571.83 546.62 573.71 C 543.84 575.68 541.27 572.95 539.28 571.25 C 527.87 572.77 515.53 575.69 507.62 584.70 C 498.68 595.11 497.27 609.84 498.90 622.97 C 500.43 635.65 508.18 648.15 520.52 652.70 C 538.02 659.47 558.36 653.40 571.15 640.17 C 584.56 626.91 597.66 613.34 611.11 600.13 C 619.18 592.60 627.65 585.02 638.09 581.00 C 639.22 578.44 641.62 575.32 644.81 576.96 C 648.89 578.40 648.13 584.81 643.94 585.50 C 640.94 586.63 639.33 581.54 636.46 583.56 C 624.66 588.90 615.36 598.29 606.27 607.26 C 593.87 619.54 581.87 632.23 569.20 644.23 C 555.88 656.35 535.77 660.96 518.92 653.90 C 506.54 648.78 498.74 636.08 497.15 623.10 C 495.41 609.48 497.08 594.19 506.45 583.49 C 514.68 574.10 527.54 571.08 539.40 569.45 Z" />
<path fill="#feeb5e" stroke="#feeb5e" stroke-width="0.09375" opacity="1.00" d=" M 599.84 593.75 C 612.49 581.73 626.93 569.50 644.89 567.25 C 661.31 564.90 680.67 570.51 688.60 586.23 C 698.12 605.27 696.19 631.97 678.96 646.09 C 679.97 651.18 673.98 654.44 670.42 650.55 C 669.81 648.43 669.94 646.27 671.14 644.39 C 673.33 642.95 675.74 643.43 677.96 644.51 C 688.74 636.30 692.91 622.10 692.30 609.01 C 692.43 594.93 686.22 579.52 672.95 573.12 C 657.84 566.04 639.22 567.37 624.99 576.00 C 616.26 581.27 608.16 587.69 601.13 595.09 C 601.53 597.56 601.46 600.75 598.69 601.82 C 594.92 603.91 590.58 598.74 593.09 595.31 C 594.47 592.79 597.51 593.31 599.84 593.75 Z" />
<path fill="#feeb5e" stroke="#feeb5e" stroke-width="0.09375" opacity="1.00" d=" M 660.57 579.58 C 669.90 580.86 678.62 587.24 681.42 596.43 C 684.83 607.80 684.69 621.49 677.32 631.32 C 669.72 640.29 657.54 642.86 646.63 645.45 C 645.72 650.99 637.08 650.88 637.28 644.98 C 637.71 639.63 644.28 639.94 646.84 643.60 C 656.25 641.49 666.17 639.13 673.69 632.73 C 681.71 625.28 682.52 613.26 681.25 603.04 C 680.45 592.29 672.09 583.09 661.38 581.55 C 661.18 581.06 660.77 580.07 660.57 579.58 Z" />
<path fill="#feeb5e" stroke="#feeb5e" stroke-width="0.09375" opacity="1.00" d=" M 506.97 616.01 C 506.72 606.52 508.55 593.81 517.87 589.23 C 516.48 593.09 512.28 595.31 511.20 599.46 C 506.89 611.72 507.50 627.30 516.86 637.14 C 526.15 645.62 540.98 645.21 551.66 639.64 C 565.24 632.21 573.54 617.84 585.80 609.14 C 585.59 611.92 582.80 613.26 581.14 615.15 C 572.95 622.92 565.81 631.89 556.64 638.58 C 546.49 645.91 532.25 647.76 520.92 642.16 C 511.50 637.23 507.20 626.16 506.97 616.01 Z" />
<path fill="#feeb5e" stroke="#feeb5e" stroke-width="0.09375" opacity="1.00" d=" M 262.64 775.29 C 263.74 775.32 264.85 775.36 265.96 775.41 C 256.40 800.70 246.61 825.90 236.97 851.16 C 236.29 851.11 234.91 851.03 234.23 850.99 C 224.72 825.74 214.85 800.62 205.46 775.33 C 206.33 775.46 208.07 775.72 208.93 775.86 C 217.83 799.15 226.63 822.49 235.52 845.79 C 244.66 822.33 253.61 798.80 262.64 775.29 Z" />
<path fill="#feeb5e" stroke="#feeb5e" stroke-width="0.09375" opacity="1.00" d=" M 280.21 775.37 C 280.92 775.36 282.34 775.32 283.05 775.30 C 283.19 800.58 283.10 825.86 283.10 851.14 C 282.37 851.11 280.93 851.04 280.21 851.01 C 280.19 825.80 280.18 800.58 280.21 775.37 Z" />
<path fill="#feeb5e" stroke="#feeb5e" stroke-width="0.09375" opacity="1.00" d=" M 303.36 775.34 C 314.29 775.91 325.85 773.56 336.26 777.82 C 347.32 782.78 349.50 797.70 344.78 807.80 C 341.25 815.19 332.68 818.01 325.05 818.45 C 332.71 829.34 340.60 840.08 348.00 851.15 C 346.78 851.07 345.57 850.97 344.36 850.85 C 336.71 840.09 329.30 829.15 321.57 818.46 C 316.47 818.30 311.36 818.46 306.26 818.40 C 306.24 829.32 306.30 840.25 306.23 851.18 C 305.50 851.12 304.05 851.00 303.32 850.94 C 303.38 825.74 303.30 800.54 303.36 775.34 M 306.25 778.24 C 306.26 790.61 306.26 802.99 306.25 815.36 C 315.18 814.95 324.40 816.49 333.10 813.92 C 348.26 809.61 347.96 783.53 332.77 779.52 C 324.13 777.22 315.08 778.62 306.25 778.24 Z" />
<path fill="#feeb5e" stroke="#feeb5e" stroke-width="0.09375" opacity="1.00" d=" M 356.37 775.32 C 371.83 775.30 387.29 775.32 402.75 775.31 C 402.79 775.97 402.86 777.30 402.90 777.96 C 395.61 778.05 388.32 777.97 381.03 778.01 C 381.03 802.38 381.04 826.75 381.03 851.12 C 380.31 851.09 378.87 851.05 378.16 851.03 C 378.12 826.69 378.15 802.34 378.14 778.00 C 370.85 777.97 363.55 778.05 356.26 777.96 C 356.29 777.30 356.34 775.98 356.37 775.32 Z" />
<path fill="#feeb5e" stroke="#feeb5e" stroke-width="0.09375" opacity="1.00" d=" M 553.03 775.30 C 553.73 775.32 555.14 775.35 555.84 775.37 C 555.89 799.72 555.82 824.07 555.88 848.42 C 565.44 848.44 575.01 848.42 584.58 848.43 C 584.61 849.08 584.66 850.38 584.69 851.03 C 574.12 851.22 563.54 851.09 552.97 851.09 C 553.00 825.83 552.89 800.56 553.03 775.30 Z" />
<path fill="#feeb5e" stroke="#feeb5e" stroke-width="0.09375" opacity="1.00" d=" M 635.66 778.67 C 648.08 769.68 669.61 775.42 672.46 791.59 C 670.42 792.03 669.15 791.22 668.75 789.25 C 664.46 777.42 648.42 774.02 638.31 780.25 C 629.67 785.65 629.77 800.25 638.38 805.65 C 647.16 811.16 658.30 811.25 666.89 817.13 C 677.18 824.39 676.46 842.24 665.72 848.74 C 652.26 856.90 631.06 849.01 629.19 832.51 C 629.90 832.43 631.33 832.29 632.04 832.22 C 634.03 846.52 651.75 853.44 663.78 846.72 C 673.33 841.18 673.93 825.35 664.65 819.25 C 655.98 813.59 644.89 813.44 636.24 807.75 C 626.64 801.39 626.61 785.51 635.66 778.67 Z" />
<path fill="#feeb5e" stroke="#feeb5e" stroke-width="0.09375" opacity="1.00" d=" M 684.88 775.31 C 700.34 775.31 715.80 775.32 731.27 775.30 C 731.29 775.97 731.35 777.31 731.37 777.98 C 724.09 778.02 716.81 777.99 709.52 778.00 C 709.53 802.30 709.48 826.61 709.55 850.91 C 708.82 850.98 707.37 851.13 706.65 851.20 C 706.54 826.81 706.61 802.41 706.61 778.01 C 699.32 777.97 692.03 778.02 684.75 777.98 C 684.78 777.32 684.85 775.98 684.88 775.31 Z" />
<path fill="#feeb5e" stroke="#feeb5e" stroke-width="0.09375" opacity="1.00" d=" M 744.11 775.36 C 744.82 775.35 746.26 775.33 746.97 775.32 C 747.04 791.22 746.96 807.11 747.01 823.01 C 747.14 829.73 748.15 837.02 752.70 842.29 C 760.22 850.55 774.16 851.37 783.21 845.23 C 789.96 840.53 791.76 831.74 791.93 824.02 C 792.06 807.78 791.86 791.54 792.03 775.30 C 792.73 775.32 794.14 775.35 794.84 775.37 C 794.84 791.88 794.92 808.39 794.80 824.90 C 794.60 833.59 791.88 843.28 784.06 848.11 C 775.20 853.40 763.09 853.22 754.47 847.53 C 746.84 842.41 744.23 832.75 744.14 824.03 C 744.03 807.80 744.09 791.58 744.11 775.36 Z" />
<path fill="#feeb5e" stroke="#feeb5e" stroke-width="0.09375" opacity="1.00" d=" M 814.57 775.32 C 828.55 775.81 843.47 773.33 856.52 779.70 C 866.33 784.29 872.72 794.38 874.07 804.97 C 876.20 818.92 873.31 835.48 861.01 844.06 C 847.46 853.62 830.09 850.63 814.54 851.10 C 814.51 825.84 814.47 800.58 814.57 775.32 M 817.41 778.01 C 817.44 801.48 817.43 824.95 817.42 848.42 C 829.37 848.06 841.93 849.89 853.28 845.15 C 861.82 841.73 868.18 833.90 870.34 825.03 C 873.71 811.09 871.68 793.72 859.33 784.69 C 847.19 775.91 831.46 778.35 817.41 778.01 Z" />
<path fill="#feeb5e" stroke="#feeb5e" stroke-width="0.09375" opacity="1.00" d=" M 892.21 775.37 C 892.92 775.36 894.34 775.32 895.05 775.30 C 895.19 800.58 895.10 825.86 895.10 851.14 C 894.37 851.11 892.93 851.04 892.21 851.01 C 892.19 825.80 892.19 800.59 892.21 775.37 Z" />
<path fill="#feeb5e" stroke="#feeb5e" stroke-width="0.09375" opacity="1.00" d=" M 939.41 775.78 C 951.28 772.88 964.85 775.54 973.71 784.28 C 988.23 798.65 988.86 824.38 975.96 839.99 C 963.20 855.35 937.07 856.06 923.32 841.68 C 904.18 822.37 911.23 782.22 939.41 775.78 M 939.38 778.65 C 913.63 785.43 908.15 822.58 925.84 840.17 C 937.81 852.20 959.37 852.32 971.54 840.52 C 985.51 826.58 985.70 801.12 972.20 786.80 C 963.91 778.18 950.71 775.47 939.38 778.65 Z" />
<path fill="#feeb5e" stroke="#feeb5e" stroke-width="0.09375" opacity="1.00" d=" M 415.70 775.59 C 416.38 775.45 417.73 775.18 418.41 775.05 C 418.73 789.69 418.46 804.35 418.54 819.00 C 418.44 826.65 418.73 835.04 423.51 841.42 C 430.82 850.60 445.68 851.59 455.01 845.03 C 461.27 840.47 463.15 832.30 463.41 824.97 C 463.66 808.33 463.25 791.68 463.62 775.05 C 464.29 775.18 465.63 775.45 466.30 775.59 C 466.49 791.39 466.33 807.19 466.38 822.99 C 466.31 831.25 464.67 840.47 458.13 846.17 C 449.81 853.25 436.87 853.58 427.48 848.47 C 418.83 843.70 415.68 833.27 415.65 823.97 C 415.63 807.84 415.53 791.71 415.70 775.59 Z" />
<path fill="#feeb5e" stroke="#feeb5e" stroke-width="0.09375" opacity="1.00" d=" M 480.12 850.99 C 489.59 826.36 498.60 801.52 508.60 777.12 C 511.22 777.19 511.62 779.80 512.42 781.75 C 521.11 804.90 530.13 827.93 538.70 851.12 C 537.87 851.07 536.19 850.96 535.35 850.91 C 532.92 844.03 530.25 837.25 527.71 830.42 C 515.54 830.43 503.37 830.44 491.20 830.42 C 488.62 837.26 485.95 844.08 483.42 850.95 C 482.31 850.95 481.22 850.97 480.12 850.99 M 509.47 782.59 C 503.65 797.60 498.00 812.68 492.25 827.72 C 503.72 827.76 515.19 827.73 526.66 827.74 C 520.95 812.68 515.26 797.61 509.47 782.59 Z" />
</g>
</svg>
