<?xml version="1.0" encoding="UTF-8" ?>
<!DOCTYPE svg PUBLIC "-//W3C//DTD SVG 1.1//EN" "http://www.w3.org/Graphics/SVG/1.1/DTD/svg11.dtd">
<svg width="4167pt" height="4167pt" viewBox="0 0 4167 4167" version="1.1" xmlns="http://www.w3.org/2000/svg">
<g id="#000000ff">
</g>
<g id="#feeb5eff">
<path fill="#feeb5e" stroke="#feeb5e" stroke-width="0.09375" opacity="1.00" d=" M 1610.48 909.56 C 1620.61 908.18 1630.84 908.65 1641.03 908.58 C 1957.35 908.58 2273.67 908.59 2589.99 908.58 C 2612.57 908.87 2635.11 916.12 2653.18 929.78 C 2675.21 945.97 2690.44 971.04 2694.80 998.02 C 2696.21 1007.27 2696.52 1016.67 2696.43 1026.02 C 2696.43 1448.68 2696.42 1871.34 2696.43 2294.00 C 2696.54 2306.41 2695.98 2318.97 2692.74 2331.01 C 2684.10 2365.10 2657.34 2393.80 2624.02 2404.97 C 2613.07 2408.64 2601.50 2410.80 2589.93 2410.55 C 2269.61 2410.54 1949.28 2410.55 1628.96 2410.54 C 1599.11 2412.17 1569.00 2400.27 1548.07 2378.99 C 1527.74 2358.60 1516.61 2329.76 1517.09 2301.06 C 1517.10 1878.71 1517.09 1456.36 1517.09 1034.01 C 1517.32 1023.14 1516.34 1012.18 1518.24 1001.41 C 1522.43 966.93 1544.94 935.50 1576.00 920.08 C 1586.79 914.66 1598.49 911.01 1610.48 909.56 M 1609.74 918.04 C 1588.15 921.05 1567.75 931.77 1552.78 947.58 C 1537.17 963.79 1527.34 985.53 1525.94 1008.03 C 1525.06 1015.99 1525.53 1024.00 1525.42 1032.00 C 1525.42 1449.01 1525.42 1866.01 1525.42 2283.02 C 1525.50 2295.01 1524.91 2307.06 1526.75 2318.97 C 1529.83 2340.00 1540.23 2359.79 1555.46 2374.58 C 1572.62 2391.29 1596.00 2401.46 1619.97 2402.30 C 1937.32 2402.30 2254.66 2402.30 2572.00 2402.30 C 2582.72 2402.06 2593.53 2403.02 2604.17 2401.27 C 2624.00 2398.45 2642.61 2388.99 2657.23 2375.39 C 2672.02 2361.21 2682.57 2342.45 2686.22 2322.21 C 2688.74 2309.96 2687.27 2297.41 2687.66 2285.01 C 2687.66 1867.01 2687.66 1449.02 2687.66 1031.02 C 2687.33 1020.36 2688.55 1009.58 2686.50 999.04 C 2683.45 979.69 2674.09 961.54 2660.61 947.39 C 2646.12 932.28 2626.76 921.80 2606.07 918.40 C 2596.48 916.56 2586.68 917.38 2576.99 917.19 C 2264.32 917.19 1951.66 917.19 1638.99 917.19 C 1629.24 917.43 1619.41 916.56 1609.74 918.04 Z" />
<path fill="#feeb5e" stroke="#feeb5e" stroke-width="0.09375" opacity="1.00" d=" M 2306.41 3002.52 C 2321.62 2997.12 2337.91 2995.48 2353.97 2995.62 C 2376.38 2995.87 2399.58 2999.99 2418.58 3012.51 C 2435.63 3024.10 2450.61 3040.66 2455.51 3061.14 C 2455.99 3063.21 2453.26 3062.98 2452.01 3063.02 C 2449.18 3063.03 2446.37 3062.97 2443.57 3062.93 C 2438.49 3044.72 2425.28 3029.36 2409.03 3020.02 C 2394.89 3011.38 2378.49 3007.09 2362.04 3006.20 C 2340.33 3004.95 2317.45 3007.20 2298.34 3018.35 C 2286.40 3025.17 2276.45 3036.04 2272.48 3049.38 C 2268.67 3062.07 2268.76 3075.94 2272.53 3088.64 C 2277.73 3105.30 2292.41 3117.07 2307.61 3124.42 C 2343.35 3139.90 2382.83 3144.00 2418.60 3159.43 C 2431.52 3165.20 2442.96 3174.23 2451.63 3185.42 C 2459.13 3195.32 2462.75 3207.66 2463.72 3219.93 C 2465.14 3234.81 2462.40 3250.09 2455.22 3263.25 C 2447.13 3278.77 2432.43 3289.83 2416.60 3296.61 C 2397.33 3304.45 2376.04 3305.70 2355.50 3304.25 C 2333.84 3302.67 2312.49 3295.71 2294.60 3283.32 C 2275.94 3270.58 2261.19 3250.56 2258.68 3227.69 C 2262.66 3226.60 2266.83 3227.19 2270.92 3227.09 C 2273.67 3242.32 2281.81 3256.37 2292.71 3267.24 C 2308.00 3281.74 2328.16 3290.81 2349.05 3293.27 C 2368.60 3295.57 2388.94 3295.12 2407.73 3288.72 C 2425.21 3282.83 2440.30 3269.48 2447.26 3252.27 C 2452.94 3237.79 2453.00 3221.33 2448.49 3206.53 C 2443.02 3189.44 2428.15 3177.20 2412.59 3169.43 C 2376.81 3153.45 2337.08 3149.37 2301.13 3133.86 C 2288.25 3128.07 2276.66 3119.19 2268.20 3107.86 C 2261.14 3098.07 2258.05 3085.94 2257.46 3074.02 C 2256.37 3058.85 2259.87 3043.12 2268.71 3030.60 C 2277.82 3017.48 2291.39 3007.77 2306.41 3002.52 Z" />
<path fill="#feeb5e" stroke="#feeb5e" stroke-width="0.09375" opacity="1.00" d=" M 3712.52 2996.72 C 3749.81 2993.81 3788.57 2999.88 3821.31 3018.64 C 3848.39 3033.76 3870.40 3057.73 3883.00 3086.09 C 3891.13 3104.26 3895.37 3124.08 3895.98 3143.96 C 3896.86 3166.44 3893.59 3189.24 3885.12 3210.16 C 3873.49 3239.20 3852.16 3264.19 3825.32 3280.25 C 3794.24 3299.28 3757.08 3306.61 3720.96 3305.00 C 3686.70 3303.90 3652.35 3293.73 3624.42 3273.55 C 3598.49 3255.00 3579.13 3227.56 3570.16 3196.98 C 3563.37 3173.76 3562.15 3149.06 3565.57 3125.16 C 3570.20 3092.56 3586.16 3061.67 3610.32 3039.25 C 3637.97 3013.52 3675.12 2999.44 3712.52 2996.72 M 3715.55 3006.83 C 3683.73 3009.05 3652.06 3019.85 3627.01 3039.88 C 3601.65 3060.12 3584.28 3089.95 3579.02 3121.95 C 3575.18 3145.19 3575.81 3169.34 3581.85 3192.16 C 3590.28 3224.03 3611.15 3252.38 3639.02 3269.98 C 3668.56 3288.81 3704.31 3296.47 3739.07 3294.72 C 3772.32 3293.36 3805.67 3282.74 3832.00 3262.06 C 3857.47 3242.04 3875.11 3212.43 3880.64 3180.51 C 3884.63 3157.56 3884.16 3133.70 3878.54 3111.06 C 3870.42 3078.39 3849.28 3049.20 3820.81 3031.25 C 3789.78 3011.45 3751.97 3004.10 3715.55 3006.83 Z" />
<path fill="#feeb5e" stroke="#feeb5e" stroke-width="0.09375" opacity="1.00" d=" M 306.38 2999.92 C 310.41 2997.17 315.80 2999.16 320.41 2998.58 C 361.73 3093.13 402.90 3187.75 444.28 3282.28 C 485.98 3187.70 527.77 3093.14 569.53 2998.58 C 574.12 2999.19 579.56 2997.12 583.55 2999.96 C 539.20 3100.57 494.82 3201.17 450.51 3301.80 C 446.66 3301.81 442.81 3301.80 438.97 3301.82 C 394.77 3201.19 350.57 3100.56 306.38 2999.92 Z" />
<path fill="#feeb5e" stroke="#feeb5e" stroke-width="0.09375" opacity="1.00" d=" M 651.22 2998.95 C 654.84 2998.13 658.63 2998.74 662.33 2998.57 C 663.27 3001.96 662.85 3005.51 662.92 3009.02 C 662.91 3105.69 662.92 3202.37 662.91 3299.05 C 663.11 3300.21 662.70 3301.09 661.68 3301.71 C 657.99 3301.96 654.24 3302.01 650.60 3301.32 C 650.56 3203.88 650.60 3106.44 650.58 3009.01 C 650.86 3005.67 649.87 3002.01 651.22 2998.95 Z" />
<path fill="#feeb5e" stroke="#feeb5e" stroke-width="0.09375" opacity="1.00" d=" M 757.07 3001.94 C 757.10 3000.73 757.00 2998.40 758.81 2998.64 C 787.86 2998.50 816.93 2998.62 845.99 2998.59 C 867.81 2998.75 890.14 3000.91 910.38 3009.61 C 926.34 3016.39 940.13 3028.49 948.17 3043.93 C 956.36 3059.53 958.48 3077.68 956.94 3095.06 C 955.68 3110.14 950.69 3125.20 941.03 3137.02 C 930.70 3149.87 915.83 3158.32 900.30 3163.30 C 885.88 3167.87 870.75 3169.98 855.66 3170.56 C 890.28 3213.19 924.92 3255.81 959.55 3298.44 C 960.59 3299.38 960.64 3300.46 959.72 3301.68 C 955.32 3302.00 950.90 3301.77 946.50 3301.74 C 911.47 3257.98 876.21 3214.40 841.10 3170.70 C 817.21 3170.69 793.32 3170.70 769.42 3170.69 C 769.30 3214.15 769.64 3257.63 769.25 3301.07 C 766.42 3302.51 763.02 3301.59 759.96 3301.83 C 758.29 3302.13 756.63 3300.85 757.09 3299.12 C 757.07 3200.06 757.10 3101.00 757.07 3001.94 M 769.44 3159.20 C 794.63 3159.15 819.82 3159.19 845.02 3159.18 C 866.36 3159.09 888.34 3157.04 907.94 3147.94 C 921.95 3141.49 933.91 3130.09 939.58 3115.60 C 945.96 3099.28 946.38 3080.99 942.75 3063.99 C 938.92 3046.25 927.17 3030.30 910.95 3022.01 C 893.42 3013.00 873.40 3010.56 853.95 3009.86 C 825.78 3009.50 797.60 3009.80 769.42 3009.69 C 769.43 3059.53 769.39 3109.36 769.44 3159.20 Z" />
<path fill="#feeb5e" stroke="#feeb5e" stroke-width="0.09375" opacity="1.00" d=" M 1001.36 2999.22 C 1002.61 2998.07 1004.49 2998.72 1006.03 2998.56 C 1064.37 2998.62 1122.71 2998.56 1181.05 2998.58 C 1192.13 2998.67 1203.21 2998.39 1214.28 2998.73 C 1213.91 3001.83 1216.09 3007.07 1213.00 3008.79 C 1179.98 3009.08 1146.94 3008.83 1113.92 3008.92 C 1113.91 3105.63 1113.92 3202.34 1113.91 3299.05 C 1114.10 3300.19 1113.69 3301.08 1112.71 3301.70 C 1109.01 3301.98 1105.27 3301.98 1101.62 3301.36 C 1101.54 3203.89 1101.59 3106.41 1101.59 3008.94 C 1069.05 3008.88 1036.51 3008.92 1003.97 3008.93 C 1002.74 3009.07 1000.80 3008.58 1001.03 3007.01 C 1000.98 3004.39 1000.67 3001.71 1001.36 2999.22 Z" />
<path fill="#feeb5e" stroke="#feeb5e" stroke-width="0.09375" opacity="1.00" d=" M 1274.62 2999.50 L 1274.92 2998.80 C 1278.63 2998.42 1282.42 2998.36 1286.15 2998.85 C 1287.15 3001.40 1286.56 3004.25 1286.71 3006.97 C 1286.68 3065.32 1286.71 3123.66 1286.70 3182.01 C 1286.41 3204.90 1288.82 3228.71 1299.79 3249.21 C 1307.98 3264.82 1322.14 3276.64 1337.99 3283.96 C 1357.57 3292.95 1379.57 3295.36 1400.91 3294.26 C 1422.46 3293.20 1444.40 3287.12 1461.53 3273.54 C 1472.71 3265.01 1481.07 3253.13 1486.07 3240.04 C 1493.73 3220.34 1494.99 3198.90 1494.68 3177.98 C 1494.69 3118.97 1494.65 3059.96 1494.70 3000.96 C 1494.31 2999.00 1496.42 2998.23 1497.97 2998.57 C 1500.60 2998.52 1503.26 2998.42 1505.90 2998.71 C 1507.52 2999.44 1506.77 3001.58 1507.03 3003.02 C 1506.97 3059.68 1507.02 3116.34 1507.00 3173.00 C 1507.25 3192.09 1507.03 3211.43 1502.10 3230.02 C 1497.55 3247.98 1488.61 3265.23 1474.57 3277.59 C 1458.17 3292.48 1436.60 3300.57 1414.84 3303.34 C 1394.58 3305.84 1373.79 3305.27 1353.89 3300.53 C 1334.72 3295.93 1316.51 3286.48 1302.69 3272.31 C 1290.03 3259.42 1282.18 3242.48 1278.26 3225.00 C 1273.15 3203.69 1274.46 3181.66 1274.30 3159.96 C 1274.30 3114.65 1274.30 3069.34 1274.30 3024.03 C 1274.53 3015.86 1273.84 3007.60 1274.62 2999.50 Z" />
<path fill="#feeb5e" stroke="#feeb5e" stroke-width="0.09375" opacity="1.00" d=" M 1906.99 3001.97 C 1906.94 3000.59 1906.94 2998.28 1908.96 2998.62 C 1912.00 2998.48 1915.06 2998.44 1918.13 2998.69 C 1919.75 2999.51 1919.19 3001.43 1919.35 3002.98 C 1919.28 3099.18 1919.34 3195.38 1919.32 3291.59 C 1963.33 3291.57 2007.34 3291.59 2051.36 3291.58 C 2051.89 3294.53 2052.05 3297.60 2051.69 3300.64 C 2051.07 3301.56 2050.20 3301.96 2049.06 3301.82 C 2002.70 3301.83 1956.33 3301.80 1909.97 3301.83 C 1908.26 3302.15 1906.49 3300.90 1907.00 3299.09 C 1906.99 3200.05 1907.01 3101.01 1906.99 3001.97 Z" />
<path fill="#feeb5e" stroke="#feeb5e" stroke-width="0.09375" opacity="1.00" d=" M 2514.12 2999.95 C 2514.64 2998.17 2516.52 2998.59 2517.97 2998.56 C 2573.31 2998.61 2628.65 2998.57 2683.99 2998.58 C 2698.41 2998.67 2712.85 2998.39 2727.28 2998.73 C 2727.21 3001.94 2728.31 3005.66 2726.83 3008.62 C 2716.93 3009.32 2706.93 3008.70 2697.00 3008.92 C 2673.64 3008.91 2650.28 3008.91 2626.92 3008.92 C 2626.91 3105.63 2626.92 3202.34 2626.91 3299.06 C 2627.08 3300.19 2626.68 3301.07 2625.72 3301.70 C 2622.00 3301.97 2618.25 3302.01 2614.61 3301.33 C 2614.56 3203.86 2614.59 3106.40 2614.59 3008.93 C 2582.02 3008.89 2549.45 3008.92 2516.89 3008.92 C 2515.67 3009.06 2514.75 3008.65 2514.12 3007.70 C 2513.84 3005.10 2513.85 3002.49 2514.12 2999.95 Z" />
<path fill="#feeb5e" stroke="#feeb5e" stroke-width="0.09375" opacity="1.00" d=" M 2787.30 3033.04 C 2787.52 3021.58 2786.83 3010.09 2787.67 2998.67 C 2791.55 2998.53 2795.46 2998.52 2799.37 2998.70 C 2800.10 3008.44 2799.50 3018.24 2799.70 3028.02 C 2799.79 3083.01 2799.51 3138.01 2799.84 3193.00 C 2800.46 3213.49 2804.03 3234.57 2814.66 3252.41 C 2824.88 3269.62 2842.31 3281.60 2861.04 3287.94 C 2880.32 3294.35 2901.03 3295.61 2921.17 3293.71 C 2941.67 3291.69 2962.17 3284.59 2977.82 3270.86 C 2991.85 3259.03 3000.07 3241.70 3003.95 3224.04 C 3008.81 3203.36 3007.52 3182.02 3007.68 3160.97 C 3007.69 3107.61 3007.65 3054.25 3007.70 3000.89 C 3007.59 2997.50 3011.87 2998.79 3014.03 2998.54 C 3016.03 2998.77 3020.18 2997.53 3019.97 3000.88 C 3020.04 3058.59 3019.98 3116.31 3020.00 3174.02 C 3019.91 3184.50 3020.33 3195.01 3019.28 3205.47 C 3017.58 3224.13 3013.01 3242.94 3003.12 3259.04 C 2993.03 3275.58 2977.01 3288.02 2959.16 3295.27 C 2941.10 3302.66 2921.37 3304.99 2901.98 3304.79 C 2882.06 3304.42 2861.88 3301.07 2843.84 3292.33 C 2827.26 3284.32 2812.52 3271.92 2803.24 3255.88 C 2791.59 3236.04 2787.75 3212.66 2787.36 3189.95 C 2787.22 3137.64 2787.34 3085.34 2787.30 3033.04 Z" />
<path fill="#feeb5e" stroke="#feeb5e" stroke-width="0.09375" opacity="1.00" d=" M 3111.67 3001.93 C 3111.35 3000.41 3112.12 2998.32 3113.99 2998.61 C 3144.98 2998.56 3175.99 2998.57 3206.99 2998.61 C 3244.61 2999.03 3283.36 3004.25 3316.97 3022.18 C 3344.21 3036.60 3366.50 3060.63 3377.38 3089.62 C 3386.23 3112.56 3388.65 3137.53 3387.37 3161.95 C 3386.30 3181.51 3382.24 3201.08 3373.93 3218.90 C 3362.39 3244.06 3342.00 3264.72 3317.72 3277.80 C 3298.85 3288.09 3277.97 3294.24 3256.84 3297.75 C 3236.09 3301.23 3215.01 3302.01 3194.02 3301.82 C 3173.67 3301.82 3153.33 3301.82 3132.99 3301.82 C 3125.90 3301.55 3118.73 3302.39 3111.71 3301.33 C 3111.63 3201.53 3111.71 3101.73 3111.67 3001.93 M 3124.20 3008.91 C 3124.20 3103.14 3124.20 3197.36 3124.20 3291.59 C 3150.48 3291.57 3176.75 3291.59 3203.03 3291.58 C 3226.81 3291.48 3250.76 3289.55 3273.82 3283.44 C 3289.74 3279.25 3305.20 3272.98 3319.04 3264.00 C 3334.36 3254.00 3347.51 3240.58 3356.87 3224.84 C 3365.77 3209.93 3371.10 3193.07 3373.54 3175.93 C 3375.99 3158.00 3375.92 3139.71 3373.14 3121.83 C 3370.40 3104.54 3364.60 3087.63 3355.19 3072.82 C 3345.41 3057.35 3331.93 3044.30 3316.37 3034.71 C 3285.50 3015.82 3248.67 3010.00 3213.04 3008.95 C 3183.42 3008.86 3153.81 3008.94 3124.20 3008.91 Z" />
<path fill="#feeb5e" stroke="#feeb5e" stroke-width="0.09375" opacity="1.00" d=" M 3469.56 3003.03 C 3469.68 3001.52 3469.00 2999.33 3470.86 2998.69 C 3474.33 2998.41 3477.83 2998.61 3481.35 2998.58 C 3482.35 3002.63 3481.76 3006.85 3481.91 3011.00 C 3481.92 3107.02 3481.92 3203.05 3481.91 3299.07 C 3482.07 3300.20 3481.66 3301.08 3480.71 3301.70 C 3477.00 3301.97 3473.25 3301.99 3469.62 3301.35 C 3469.52 3201.91 3469.64 3102.47 3469.56 3003.03 Z" />
<path fill="#feeb5e" stroke="#feeb5e" stroke-width="0.09375" opacity="1.00" d=" M 1700.20 3007.59 C 1704.05 3007.56 1707.92 3007.56 1711.79 3007.59 C 1744.48 3082.41 1777.24 3157.20 1809.97 3232.01 C 1819.82 3254.71 1829.95 3277.31 1839.63 3300.09 C 1839.41 3300.49 1838.96 3301.28 1838.73 3301.67 C 1834.60 3302.01 1830.46 3301.73 1826.34 3301.81 C 1814.47 3274.20 1802.44 3246.65 1790.60 3219.02 C 1734.20 3218.83 1677.80 3218.87 1621.41 3219.00 C 1609.36 3246.63 1597.22 3274.21 1585.12 3301.82 C 1581.72 3301.77 1578.33 3301.87 1574.95 3301.82 C 1573.54 3302.02 1572.52 3301.17 1571.59 3300.35 C 1614.53 3202.79 1657.35 3105.19 1700.20 3007.59 M 1626.03 3208.67 C 1679.34 3208.69 1732.65 3208.68 1785.96 3208.68 C 1759.31 3147.72 1732.66 3086.76 1706.00 3025.81 C 1679.32 3086.76 1652.70 3147.72 1626.03 3208.67 Z" />
</g>
<g id="#fbef43ff">
<path fill="#fbef43" stroke="#fbef43" stroke-width="0.09375" opacity="1.00" d=" M 1872.91 1064.42 C 1882.48 1059.89 1895.57 1064.69 1899.25 1074.81 C 1902.82 1081.90 1900.76 1090.76 1895.38 1096.35 C 1894.06 1097.39 1892.78 1098.49 1891.54 1099.60 C 1892.11 1103.67 1893.05 1107.69 1894.16 1111.66 C 1891.60 1111.66 1889.06 1111.70 1886.53 1111.82 L 1886.28 1111.83 C 1885.61 1108.67 1884.80 1105.54 1884.08 1102.41 C 1879.47 1102.58 1874.63 1101.98 1870.76 1099.30 C 1864.33 1095.18 1860.34 1087.21 1861.57 1079.57 C 1862.90 1073.21 1866.87 1067.17 1872.91 1064.42 Z" />
</g>
<g id="#fef04dff">
<path fill="#fef04d" stroke="#fef04d" stroke-width="0.09375" opacity="1.00" d=" M 2273.55 1070.18 C 2294.92 1070.33 2316.31 1070.45 2337.69 1070.11 C 2336.35 1076.83 2333.83 1083.23 2332.70 1090.00 C 2316.11 1162.56 2299.52 1235.11 2282.98 1307.68 C 2272.53 1352.98 2262.41 1398.37 2251.84 1443.64 C 2250.19 1441.76 2248.51 1439.91 2246.43 1438.54 L 2245.42 1437.81 C 2270.56 1328.13 2295.64 1218.42 2320.61 1108.69 C 2322.53 1098.53 2325.67 1088.60 2327.10 1078.36 C 2311.52 1078.47 2295.93 1078.16 2280.37 1078.51 C 2277.82 1086.64 2276.53 1095.38 2274.47 1103.75 C 2265.24 1145.37 2256.23 1187.04 2246.97 1228.65 C 2235.06 1283.35 2223.00 1338.03 2211.00 1392.71 C 2200.48 1441.27 2189.76 1489.80 2179.01 1538.31 C 2163.91 1607.81 2148.56 1677.25 2133.37 1746.72 C 2131.12 1744.26 2129.11 1741.62 2127.51 1738.71 L 2127.22 1738.22 C 2137.15 1694.38 2146.54 1650.42 2156.28 1606.54 C 2194.54 1432.24 2232.83 1257.96 2271.08 1083.66 C 2271.91 1079.17 2272.50 1074.63 2273.55 1070.18 Z" />
<path fill="#fef04d" stroke="#fef04d" stroke-width="0.09375" opacity="1.00" d=" M 1886.53 1111.82 C 1889.06 1111.70 1891.60 1111.66 1894.16 1111.66 C 1910.31 1179.91 1927.31 1247.96 1943.51 1316.20 C 1951.15 1347.20 1958.46 1378.29 1966.12 1409.29 C 1970.66 1428.44 1975.30 1447.58 1980.01 1466.70 C 2004.28 1567.54 2028.87 1668.31 2053.16 1769.15 C 2065.17 1818.28 2076.78 1867.52 2088.95 1916.61 C 2104.65 1916.55 2120.35 1916.60 2136.06 1916.59 C 2146.48 1871.74 2156.58 1826.81 2166.84 1781.92 C 2175.34 1745.51 2183.26 1708.97 2192.01 1672.63 C 2193.07 1670.91 2194.13 1669.20 2195.16 1667.48 C 2195.83 1669.64 2197.60 1670.98 2199.54 1672.04 C 2197.72 1683.44 2194.41 1694.57 2192.04 1705.88 C 2176.95 1771.85 2161.91 1837.83 2146.83 1903.81 C 2144.78 1910.69 2144.44 1917.91 2142.39 1924.80 C 2126.61 1924.04 2110.79 1924.35 2094.99 1924.31 C 2090.86 1924.55 2086.73 1924.96 2082.60 1924.74 C 2080.80 1918.81 2080.49 1912.57 2078.65 1906.66 C 2017.68 1654.81 1956.79 1402.94 1895.79 1151.10 C 1892.94 1137.95 1888.91 1125.07 1886.53 1111.82 Z" />
<path fill="#fef04d" stroke="#fef04d" stroke-width="0.09375" opacity="1.00" d=" M 1981.34 1277.02 C 1983.84 1277.38 1986.38 1277.07 1988.71 1276.03 C 2002.04 1331.54 2014.78 1387.20 2028.00 1442.74 C 2051.13 1541.35 2074.25 1639.95 2097.55 1738.51 C 2097.86 1740.06 2098.28 1741.63 2098.20 1743.27 C 2097.20 1743.43 2096.23 1743.60 2095.27 1743.79 C 2095.00 1745.15 2094.73 1746.50 2094.52 1747.91 C 2093.56 1747.64 2092.63 1747.38 2091.73 1747.13 C 2068.58 1648.63 2045.37 1550.11 2022.36 1451.58 C 2015.00 1421.18 2008.07 1390.67 2000.80 1360.24 C 1994.45 1332.47 1987.54 1304.82 1981.34 1277.02 Z" />
<path fill="#fef04d" stroke="#fef04d" stroke-width="0.09375" opacity="1.00" d=" M 2333.07 1917.58 C 2338.53 1916.01 2344.22 1916.93 2349.82 1916.31 C 2356.21 1915.76 2362.60 1916.92 2369.02 1916.59 C 2392.70 1917.72 2416.26 1922.47 2438.49 1930.80 C 2457.04 1937.94 2474.34 1948.52 2488.72 1962.29 C 2503.48 1976.46 2515.43 1993.52 2524.07 2012.06 C 2538.59 2043.20 2543.71 2077.90 2543.87 2112.01 C 2543.05 2125.30 2542.59 2138.67 2540.40 2151.85 C 2536.80 2174.46 2529.91 2196.71 2518.66 2216.72 C 2510.09 2232.22 2498.79 2246.08 2485.98 2258.26 C 2485.54 2257.66 2484.66 2256.47 2484.22 2255.88 C 2483.56 2256.92 2482.91 2257.97 2482.28 2259.04 C 2481.53 2257.96 2480.82 2256.93 2480.14 2255.91 C 2480.92 2255.47 2481.74 2255.06 2482.59 2254.68 C 2481.96 2253.96 2481.35 2253.28 2480.77 2252.62 C 2486.49 2246.72 2492.52 2241.10 2497.59 2234.60 C 2510.06 2219.08 2519.31 2201.08 2525.43 2182.17 C 2532.71 2158.86 2535.99 2134.34 2535.43 2109.96 C 2536.06 2084.07 2532.51 2058.02 2524.45 2033.38 C 2517.82 2014.08 2508.15 1995.67 2495.00 1980.00 C 2483.02 1965.05 2467.52 1953.03 2450.40 1944.51 C 2429.29 1933.39 2405.64 1928.25 2382.11 1925.58 C 2376.08 1924.77 2369.95 1925.96 2364.03 1924.40 C 2339.60 1923.59 2314.96 1926.36 2291.51 1933.41 C 2256.14 1943.55 2224.75 1963.72 2195.49 1985.49 C 2180.74 1996.64 2166.57 2008.55 2152.91 2020.99 C 2149.24 2024.93 2144.99 2028.23 2141.07 2031.89 L 2141.17 2032.43 C 2138.73 2031.76 2136.20 2031.41 2134.02 2030.13 L 2133.02 2029.21 C 2161.08 2002.87 2190.57 1977.76 2223.22 1957.21 C 2256.09 1935.76 2293.81 1921.07 2333.07 1917.58 Z" />
<path fill="#fef04d" stroke="#fef04d" stroke-width="0.09375" opacity="1.00" d=" M 2397.81 1973.18 C 2406.76 1974.73 2415.70 1976.92 2423.91 1980.90 C 2441.55 1987.64 2457.50 1998.84 2469.25 2013.68 C 2483.31 2031.13 2490.70 2053.03 2494.18 2074.93 C 2497.82 2099.83 2497.62 2125.37 2492.51 2150.07 C 2488.13 2170.58 2479.56 2190.61 2465.31 2206.24 C 2451.97 2221.18 2434.20 2231.27 2416.12 2239.38 C 2397.72 2247.55 2378.40 2253.48 2358.83 2258.13 C 2354.87 2258.96 2350.96 2260.52 2346.88 2260.34 L 2346.31 2260.10 C 2346.29 2257.78 2346.29 2255.48 2346.35 2253.19 L 2346.35 2252.99 C 2368.08 2248.67 2389.48 2242.42 2409.94 2233.87 C 2426.37 2226.68 2442.62 2218.14 2455.66 2205.62 C 2471.61 2189.89 2481.12 2168.62 2485.32 2146.83 C 2489.74 2123.03 2489.77 2098.52 2486.36 2074.59 C 2483.30 2053.62 2475.70 2033.05 2462.35 2016.41 C 2456.93 2010.96 2451.81 2005.09 2445.36 2000.82 C 2439.29 1996.20 2432.39 1992.91 2425.54 1989.65 C 2415.89 1986.55 2406.29 1983.14 2396.27 1981.37 C 2396.62 1978.60 2397.22 1975.88 2397.81 1973.18 Z" />
<path fill="#fef04d" stroke="#fef04d" stroke-width="0.09375" opacity="1.00" d=" M 1759.30 2014.83 C 1761.16 2016.91 1762.85 2019.14 1764.63 2021.32 C 1760.61 2025.05 1756.24 2028.43 1752.74 2032.69 C 1750.37 2035.69 1747.25 2038.05 1745.28 2041.37 C 1730.80 2062.20 1725.31 2087.85 1724.05 2112.82 C 1722.80 2135.98 1724.76 2159.61 1732.11 2181.74 C 1738.89 2201.21 1749.86 2219.81 1766.05 2232.90 C 1783.49 2246.98 1805.79 2253.71 1827.90 2255.37 C 1844.68 2256.47 1861.72 2256.00 1878.11 2251.88 C 1898.98 2247.12 1918.41 2237.21 1935.58 2224.57 C 1948.39 2215.20 1960.10 2204.44 1971.43 2193.38 C 1984.74 2178.74 1999.24 2165.22 2013.05 2151.05 C 2018.97 2145.60 2023.90 2139.24 2029.78 2133.77 C 2034.12 2129.15 2039.06 2125.08 2042.83 2119.95 C 2048.14 2114.05 2054.08 2108.75 2059.44 2102.90 C 2061.51 2104.91 2063.55 2106.95 2065.63 2108.99 C 2062.21 2112.45 2058.77 2115.89 2055.45 2119.44 C 2052.01 2123.38 2047.30 2125.90 2043.96 2129.94 C 2036.41 2137.10 2029.76 2145.12 2022.21 2152.28 C 2009.16 2165.54 1995.66 2178.38 1983.06 2192.07 C 1969.66 2205.72 1955.76 2218.97 1940.32 2230.32 C 1925.91 2241.07 1909.94 2249.85 1892.87 2255.59 C 1870.53 2263.12 1846.51 2265.61 1823.11 2262.76 C 1802.40 2260.47 1781.74 2253.93 1764.89 2241.40 C 1749.72 2230.35 1738.42 2214.70 1730.43 2197.86 C 1720.48 2176.32 1716.31 2152.47 1715.89 2128.87 C 1715.59 2107.59 1717.88 2085.98 1724.80 2065.72 C 1729.27 2052.70 1735.83 2040.32 1744.73 2029.77 C 1748.58 2023.90 1753.91 2019.24 1759.30 2014.83 Z" />
</g>
<g id="#fbef42ff">
<path fill="#fbef42" stroke="#fbef42" stroke-width="0.09375" opacity="1.00" d=" M 1959.21 1241.39 C 1962.42 1231.44 1974.43 1224.45 1984.49 1228.59 C 1991.83 1231.12 1997.22 1238.20 1997.89 1245.91 C 1998.56 1253.94 1993.36 1261.57 1986.41 1265.22 C 1987.09 1268.82 1988.04 1272.40 1988.71 1276.03 C 1986.38 1277.07 1983.84 1277.38 1981.34 1277.02 L 1981.01 1277.00 C 1980.50 1273.87 1979.76 1270.79 1978.76 1267.80 C 1973.65 1266.96 1968.24 1265.43 1964.61 1261.53 C 1959.09 1256.68 1956.63 1248.33 1959.21 1241.39 Z" />
<path fill="#fbef42" stroke="#fbef42" stroke-width="0.09375" opacity="1.00" d=" M 2245.14 1438.20 L 2246.43 1438.54 C 2248.51 1439.91 2250.19 1441.76 2251.84 1443.64 L 2251.98 1443.79 C 2251.03 1447.22 2250.31 1450.71 2249.69 1454.23 C 2257.89 1458.63 2263.05 1469.25 2259.31 1478.18 C 2256.02 1488.35 2243.59 1494.51 2233.66 1490.19 C 2225.17 1487.01 2219.99 1477.69 2220.82 1468.81 C 2222.43 1462.89 2226.02 1457.44 2231.39 1454.32 C 2234.73 1452.62 2238.49 1452.03 2242.19 1451.52 C 2243.40 1447.13 2244.41 1442.69 2245.14 1438.20 Z" />
<path fill="#fbef42" stroke="#fbef42" stroke-width="0.09375" opacity="1.00" d=" M 2184.19 1638.97 C 2184.16 1628.98 2192.99 1620.18 2202.87 1619.68 C 2207.64 1619.19 2212.08 1621.44 2216.08 1623.80 C 2218.97 1626.87 2222.06 1630.08 2222.96 1634.39 C 2225.17 1640.68 2222.77 1647.67 2218.60 1652.59 C 2214.70 1657.18 2208.63 1659.41 2202.72 1659.62 C 2201.74 1663.81 2200.71 1668.00 2199.83 1672.22 L 2199.54 1672.04 C 2197.60 1670.98 2195.83 1669.64 2195.16 1667.48 C 2194.13 1669.20 2193.07 1670.91 2192.01 1672.63 C 2192.85 1667.42 2194.49 1662.36 2195.05 1657.11 C 2188.38 1653.80 2183.75 1646.47 2184.19 1638.97 Z" />
<path fill="#fbef42" stroke="#fbef42" stroke-width="0.09375" opacity="1.00" d=" M 1870.55 1913.37 C 1874.38 1909.71 1880.07 1909.98 1884.99 1910.32 C 1892.37 1911.84 1898.61 1917.86 1900.43 1925.18 C 1902.41 1931.18 1900.03 1937.72 1896.39 1942.59 C 1891.86 1947.92 1884.37 1950.91 1877.45 1949.33 C 1870.71 1947.70 1864.72 1942.73 1862.43 1936.11 C 1859.67 1936.12 1856.96 1936.49 1854.25 1936.79 C 1853.94 1935.33 1853.66 1933.90 1853.41 1932.49 C 1852.09 1931.65 1850.86 1930.67 1849.54 1929.92 C 1853.45 1928.85 1857.57 1928.86 1861.49 1927.83 C 1862.33 1921.98 1865.51 1916.55 1870.55 1913.37 Z" />
<path fill="#fbef42" stroke="#fbef42" stroke-width="0.09375" opacity="1.00" d=" M 2297.71 1979.03 C 2298.36 1968.32 2308.12 1958.94 2318.96 1959.51 C 2325.16 1959.80 2330.14 1963.90 2334.36 1968.09 C 2339.86 1976.26 2338.32 1988.26 2330.55 1994.45 C 2324.96 1999.46 2316.64 2000.74 2309.87 1997.44 C 2305.44 1995.26 2301.81 1991.54 2299.56 1987.19 C 2294.97 1987.33 2290.94 1989.79 2286.68 1991.20 C 2285.75 1988.88 2284.82 1986.56 2283.93 1984.27 C 2288.48 1982.43 2293.12 1980.81 2297.71 1979.03 Z" />
<path fill="#fbef42" stroke="#fbef42" stroke-width="0.09375" opacity="1.00" d=" M 2125.07 2036.73 C 2128.08 2034.88 2130.20 2031.87 2132.82 2029.51 L 2134.02 2030.13 C 2136.20 2031.41 2138.73 2031.76 2141.17 2032.43 C 2137.45 2035.34 2134.28 2038.84 2130.93 2042.15 C 2132.05 2047.01 2135.04 2051.92 2133.08 2057.01 C 2131.27 2065.30 2123.97 2071.92 2115.53 2072.85 C 2109.45 2074.36 2103.43 2070.76 2099.26 2066.62 C 2092.23 2059.58 2092.01 2047.13 2098.90 2039.93 C 2105.13 2032.28 2117.04 2031.46 2125.07 2036.73 Z" />
<path fill="#fbef42" stroke="#fbef42" stroke-width="0.09375" opacity="1.00" d=" M 2471.63 2260.14 C 2475.02 2258.10 2477.84 2255.26 2480.77 2252.62 C 2481.35 2253.28 2481.96 2253.96 2482.59 2254.68 C 2481.74 2255.06 2480.92 2255.47 2480.14 2255.91 C 2480.82 2256.93 2481.53 2257.96 2482.28 2259.04 C 2482.91 2257.97 2483.56 2256.92 2484.22 2255.88 C 2484.66 2256.47 2485.54 2257.66 2485.98 2258.26 C 2482.25 2260.94 2478.84 2264.03 2475.26 2266.90 C 2475.58 2270.92 2476.79 2275.04 2475.50 2279.04 C 2473.83 2283.98 2471.63 2289.44 2466.50 2291.67 C 2457.76 2297.16 2445.13 2294.30 2439.71 2285.50 C 2434.04 2277.72 2436.17 2266.31 2443.03 2260.00 C 2445.95 2257.57 2449.45 2255.79 2453.19 2255.00 C 2457.16 2253.82 2461.28 2255.43 2464.98 2256.89 C 2467.28 2257.76 2468.91 2260.70 2471.63 2260.14 Z" />
</g>
<g id="#fcef48ff">
<path fill="#fcef48" stroke="#fcef48" stroke-width="0.09375" opacity="1.00" d=" M 2127.51 1738.71 C 2129.11 1741.62 2131.12 1744.26 2133.37 1746.72 C 2128.73 1767.36 2124.24 1788.04 2119.65 1808.69 C 2117.86 1818.78 2114.84 1828.63 2113.31 1838.77 C 2105.99 1808.25 2098.85 1777.69 2091.73 1747.13 C 2092.63 1747.38 2093.56 1747.64 2094.52 1747.91 C 2094.73 1746.50 2095.00 1745.15 2095.27 1743.79 C 2096.23 1743.60 2097.20 1743.43 2098.20 1743.27 L 2098.66 1743.19 C 2102.35 1760.36 2106.89 1777.35 2110.61 1794.52 C 2111.14 1796.77 2111.48 1799.23 2113.09 1801.06 C 2115.20 1795.82 2115.79 1790.15 2117.11 1784.71 C 2120.62 1769.38 2123.68 1753.95 2127.51 1738.71 Z" />
</g>
<g id="#fef04cff">
<path fill="#fef04c" stroke="#fef04c" stroke-width="0.09375" opacity="1.00" d=" M 1818.96 1935.05 C 1829.05 1932.92 1839.27 1930.59 1849.54 1929.92 C 1850.86 1930.67 1852.09 1931.65 1853.41 1932.49 C 1853.66 1933.90 1853.94 1935.33 1854.25 1936.79 C 1830.38 1939.94 1806.55 1944.60 1783.93 1953.04 C 1765.27 1959.80 1747.46 1969.29 1732.24 1982.10 C 1716.65 1995.74 1704.33 2012.96 1695.70 2031.76 C 1686.34 2052.61 1681.09 2075.18 1679.07 2097.91 C 1676.99 2119.13 1677.36 2140.53 1679.95 2161.70 C 1682.73 2182.69 1688.15 2203.53 1697.69 2222.50 C 1706.72 2241.49 1719.70 2258.67 1735.70 2272.32 C 1749.62 2284.15 1766.00 2292.90 1783.25 2298.80 C 1807.00 2306.46 1832.19 2309.08 1857.06 2308.01 C 1879.92 2306.81 1902.58 2301.62 1923.62 2292.56 C 1951.82 2280.47 1977.22 2262.51 1999.30 2241.33 C 2025.65 2214.99 2051.97 2188.64 2078.30 2162.29 C 2083.50 2157.48 2087.86 2151.88 2092.98 2147.00 C 2119.81 2120.15 2146.67 2093.32 2173.49 2066.46 C 2199.64 2041.83 2226.67 2017.75 2257.06 1998.37 C 2265.68 1993.07 2274.54 1988.11 2283.93 1984.27 C 2284.82 1986.56 2285.75 1988.88 2286.68 1991.20 C 2269.84 1998.66 2254.17 2008.49 2239.47 2019.55 C 2209.12 2042.13 2181.64 2068.23 2155.14 2095.14 C 2139.15 2111.11 2123.21 2127.13 2107.22 2143.08 C 2103.19 2146.77 2099.97 2151.21 2096.00 2154.95 C 2068.31 2182.62 2040.65 2210.32 2012.97 2238.00 C 1988.83 2263.15 1960.41 2284.62 1928.42 2298.73 C 1907.25 2308.02 1884.55 2313.86 1861.48 2315.46 C 1838.34 2316.82 1814.91 2315.24 1792.43 2309.41 C 1773.49 2304.47 1755.26 2296.40 1739.49 2284.73 C 1723.90 2273.36 1710.69 2258.86 1700.28 2242.65 C 1689.29 2225.70 1681.85 2206.68 1676.85 2187.17 C 1669.67 2157.40 1668.49 2126.43 1671.45 2096.04 C 1673.92 2070.98 1680.03 2046.06 1691.36 2023.48 C 1700.90 2004.12 1714.66 1986.91 1731.37 1973.28 C 1756.65 1953.16 1787.76 1942.07 1818.96 1935.05 Z" />
</g>
<g id="#fcef46ff">
<path fill="#fcef46" stroke="#fcef46" stroke-width="0.09375" opacity="1.00" d=" M 2302.57 2245.56 C 2309.70 2241.40 2319.77 2242.37 2325.44 2248.60 C 2327.72 2250.58 2329.24 2253.20 2330.71 2255.83 C 2336.02 2255.75 2341.09 2253.81 2346.35 2253.19 C 2346.29 2255.48 2346.29 2257.78 2346.31 2260.10 L 2346.11 2260.85 C 2341.84 2262.54 2336.99 2262.51 2332.54 2263.68 C 2331.22 2267.66 2330.08 2271.72 2327.89 2275.36 C 2324.61 2278.19 2321.28 2281.32 2316.87 2282.20 C 2306.58 2285.13 2295.15 2277.64 2292.85 2267.41 C 2290.51 2259.04 2295.04 2249.63 2302.57 2245.56 Z" />
</g>
</svg>
